<?xml version="1.0" encoding="iso-8859-1"?>
<!-- Generator: Adobe Illustrator 19.0.0, SVG Export Plug-In . SVG Version: 6.00 Build 0)  -->
<svg version="1.1" id="Capa_1" xmlns="http://www.w3.org/2000/svg" xmlns:xlink="http://www.w3.org/1999/xlink" x="0px" y="0px"
	 viewBox="0 0 490.1 490.1" style="enable-background:new 0 0 490.1 490.1;" xml:space="preserve">
<g>
	<path d="M419.1,264.8h-8.3V123c0-21.9-17.7-39.6-39.6-39.6H265.9V20.9C265.9,9.4,256.5,0,245,0c-11.5,0-20.9,9.4-20.9,20.9v62.6
		H117.8c-21.9,0-39.6,17.7-39.6,39.6v141.8h-7.3C31.3,264.9,0,297.2,0,335.8v133.4c0,11.5,9.4,20.9,20.9,20.9h448.3
		c11.5,0,20.9-9.4,20.9-20.9V335.7C490,296.1,457.7,264.8,419.1,264.8z M119.9,125.1h250.2v34.2c-27.2-12.2-61.4-8-83.8,12.7
		L270,186.6c-12,10.4-33.7,10.4-44.6,0L209.1,172c-24-22.1-61.2-25.5-89.2-10.1L119.9,125.1L119.9,125.1z M119.9,216.1l15.3-13.9
		c12-10.4,33.7-10.4,44.6,0l16.3,15.6c31.5,30.1,73.7,29.4,103.2-1l16.3-14.6c12-10.4,33.7-10.4,44.6,0l9.9,8.9v53.7H119.9V216.1z
		 M449.3,449.3H40.7V335.7c0-16.7,13.6-30.2,30.2-30.2h348.2c16.7,0,30.2,13.6,30.2,30.2L449.3,449.3L449.3,449.3z"/>
</g>
<g>
</g>
<g>
</g>
<g>
</g>
<g>
</g>
<g>
</g>
<g>
</g>
<g>
</g>
<g>
</g>
<g>
</g>
<g>
</g>
<g>
</g>
<g>
</g>
<g>
</g>
<g>
</g>
<g>
</g>
</svg>
