<?xml version="1.0" standalone="no"?>
<!DOCTYPE svg PUBLIC "-//W3C//DTD SVG 20010904//EN"
 "http://www.w3.org/TR/2001/REC-SVG-20010904/DTD/svg10.dtd">
<svg version="1.0" xmlns="http://www.w3.org/2000/svg"
 width="512.000000pt" height="512.000000pt" viewBox="0 0 512.000000 512.000000"
 preserveAspectRatio="xMidYMid meet">
<metadata>
Created by potrace 1.16, written by Peter Selinger 2001-2019
</metadata>
<g transform="translate(0.000000,512.000000) scale(0.100000,-0.100000)"
fill="#000000" stroke="none">
<path d="M760 4912 c0 -4 126 -133 280 -287 154 -154 280 -287 280 -295 0 -8
-129 -142 -287 -297 l-288 -281 288 -289 c158 -158 287 -295 287 -303 0 -8
-128 -144 -284 -303 l-285 -287 -295 0 c-163 0 -295 -3 -295 -7 1 -5 131 -133
289 -286 l288 -277 1788 0 1788 0 278 277 c153 153 278 281 278 285 0 4 -259
8 -575 8 -317 0 -575 4 -575 9 0 4 128 133 285 286 157 152 285 282 285 289 0
6 -132 143 -292 303 l-293 293 293 293 293 293 -295 292 -295 292 -360 0
c-199 0 -361 -1 -361 -3 0 -1 132 -134 293 -295 l292 -292 -292 -286 c-161
-157 -293 -291 -293 -297 0 -7 131 -141 292 -299 l293 -287 -295 -295 -296
-296 -187 0 c-103 0 -187 4 -187 8 0 4 128 133 285 286 163 158 285 285 283
293 -2 8 -133 145 -293 304 l-290 289 293 292 293 293 -294 292 -293 293 -365
0 -364 0 295 -296 295 -295 -293 -287 c-161 -158 -293 -291 -292 -297 0 -5
132 -139 292 -297 l293 -287 -295 -295 -296 -296 -182 0 c-100 0 -182 4 -182
9 0 5 128 133 285 286 157 152 285 282 285 289 0 6 -132 143 -292 303 l-293
293 293 293 293 293 -295 292 -295 292 -355 0 c-196 0 -356 -3 -356 -8z"/>
<path d="M1030 1405 l0 -285 1480 0 1480 0 0 285 0 285 -1480 0 -1480 0 0
-285z"/>
<path d="M1940 812 c0 -17 557 -562 575 -562 18 0 575 545 575 562 0 4 -259 8
-575 8 -316 0 -575 -3 -575 -8z"/>
</g>
</svg>
