<?xml version="1.0" standalone="no"?>
<!DOCTYPE svg PUBLIC "-//W3C//DTD SVG 20010904//EN"
 "http://www.w3.org/TR/2001/REC-SVG-20010904/DTD/svg10.dtd">
<svg version="1.0" xmlns="http://www.w3.org/2000/svg"
 width="233.000000pt" height="233.000000pt" viewBox="0 0 233.000000 233.000000"
 preserveAspectRatio="xMidYMid meet">
<metadata>
Created by potrace 1.16, written by Peter Selinger 2001-2019
</metadata>
<g transform="translate(0.000000,233.000000) scale(0.100000,-0.100000)"
fill="#000000" stroke="none">
<path d="M1012 2319 c-385 -50 -739 -310 -902 -664 -126 -272 -142 -582 -45
-871 55 -163 146 -306 279 -440 455 -457 1186 -457 1642 0 394 394 455 993
148 1464 -109 167 -301 332 -488 417 -191 87 -424 122 -634 94z m-3 -73 c-337
-117 -438 -543 -188 -796 265 -269 719 -144 814 225 61 237 -76 486 -314 572
l-66 23 50 -5 c309 -36 607 -254 750 -550 73 -150 90 -231 90 -430 0 -147 -3
-181 -23 -249 -50 -175 -122 -303 -237 -425 -125 -132 -276 -225 -452 -277
-126 -37 -328 -44 -463 -16 -210 43 -377 137 -526 294 -113 120 -180 239 -231
408 -31 105 -42 308 -23 427 64 396 374 723 765 806 104 23 130 19 54 -7z
m-34 -375 l70 -165 3 167 2 167 35 0 35 0 0 -260 0 -260 -39 0 -38 0 -71 163
-71 162 -1 -162 0 -163 -35 0 -35 0 0 261 0 260 37 -3 37 -3 71 -164z m295 69
l0 -100 70 0 70 0 0 101 0 100 38 -3 37 -3 0 -255 0 -255 -37 -3 -37 -3 -3
113 -3 113 -67 3 -68 3 0 -116 0 -115 -40 0 -40 0 0 260 0 260 40 0 40 0 0
-100z"/>
<path d="M760 1225 l0 -24 -132 -3 -133 -3 0 -50 0 -50 133 -3 c165 -3 180
-22 17 -22 l-115 0 0 -238 0 -237 53 0 52 0 5 180 5 180 25 0 c16 0 26 -6 28
-17 2 -13 -3 -18 -17 -18 -18 0 -21 -6 -21 -44 l0 -45 53 -3 c65 -4 68 -22 5
-26 l-48 -3 0 -45 0 -44 50 0 50 0 0 -55 0 -55 55 0 55 0 0 55 0 55 55 0 55 0
0 45 0 45 -56 0 c-77 0 -69 24 9 28 l57 3 0 44 c0 41 -2 45 -24 45 -19 0 -23
4 -19 20 4 14 14 20 34 20 l30 0 -3 -132 -3 -133 -41 -3 -42 -3 16 -50 c14
-45 18 -49 46 -49 51 1 110 18 123 36 10 13 13 74 13 231 l0 213 -120 0 c-73
0 -120 4 -120 10 0 6 52 10 135 10 l135 0 0 55 0 55 -135 0 -135 0 0 25 c0 24
-2 25 -65 25 -62 0 -65 -1 -65 -25z"/>
<path d="M1340 1235 c0 -11 -16 -15 -67 -17 l-68 -3 -3 -47 -3 -48 70 0 c41 0
71 -4 71 -10 0 -5 -25 -10 -55 -10 l-55 0 0 -45 c0 -41 2 -45 25 -45 14 0 25
-4 25 -10 0 -5 -18 -10 -40 -10 l-40 0 0 -50 0 -50 40 0 c22 0 40 -4 40 -10 0
-5 -11 -10 -25 -10 -22 0 -25 -4 -25 -40 l0 -39 115 -3 c162 -4 153 -22 -12
-26 l-133 -3 0 -49 0 -50 135 0 135 0 0 -35 0 -35 60 0 60 0 0 35 0 35 130 0
130 0 0 50 0 50 -130 0 c-80 0 -130 4 -130 10 0 6 45 10 115 10 l115 0 0 45
c0 41 -2 45 -25 45 -14 0 -25 5 -25 10 0 6 20 10 45 10 l45 0 0 50 0 50 -39 0
c-22 0 -43 5 -46 10 -4 6 5 10 19 10 24 0 26 3 26 45 l0 45 -55 0 c-30 0 -55
5 -55 10 0 6 30 10 70 10 l70 0 0 50 0 50 -70 0 c-56 0 -70 3 -70 15 0 12 -13
15 -60 15 -47 0 -60 -3 -60 -15 0 -12 -13 -15 -60 -15 -47 0 -60 3 -60 15 0
12 -14 15 -65 15 -50 0 -65 -3 -65 -15z"/>
</g>
</svg>
