<?xml version="1.0" standalone="no"?>
<!DOCTYPE svg PUBLIC "-//W3C//DTD SVG 20010904//EN"
 "http://www.w3.org/TR/2001/REC-SVG-20010904/DTD/svg10.dtd">
<svg version="1.0" xmlns="http://www.w3.org/2000/svg"
 width="1200.000000pt" height="1549.000000pt" viewBox="0 0 1200.000000 1549.000000"
 preserveAspectRatio="xMidYMid meet">
<metadata>
Created by potrace 1.16, written by Peter Selinger 2001-2019
</metadata>
<g transform="translate(0.000000,1549.000000) scale(0.100000,-0.100000)"
fill="#000000" stroke="none">
<path d="M3 11183 c3 -4784 -4 -4326 67 -4743 237 -1385 1096 -2898 2410
-4243 1081 -1107 2351 -1958 3225 -2163 135 -31 360 -43 484 -25 471 69 1237
462 1981 1016 1370 1022 2534 2364 3204 3695 308 610 496 1164 601 1760 l25
144 0 4433 0 4433 -6000 0 -6000 0 3 -4307z m6070 3783 c18 -7 44 -27 59 -43
l28 -29 2 -178 3 -179 100 -22 c176 -40 323 -106 441 -198 l71 -56 119 120
c128 128 174 157 237 145 54 -10 107 -77 107 -136 0 -48 -13 -65 -146 -200
l-123 -125 55 -90 c92 -152 161 -335 179 -471 l7 -51 188 -5 c207 -5 222 -9
261 -71 24 -38 21 -102 -6 -143 -31 -48 -74 -58 -267 -62 l-176 -4 -7 -45
c-23 -157 -117 -396 -197 -501 l-40 -54 132 -133 133 -134 5 -53 c4 -47 1 -58
-22 -85 -15 -17 -47 -39 -72 -49 -75 -29 -103 -14 -242 131 l-120 125 -74 -52
c-133 -96 -272 -159 -443 -203 l-90 -23 -5 -169 c-6 -186 -11 -206 -73 -243
-64 -39 -157 -15 -189 50 -15 29 -18 63 -18 198 l0 162 -25 0 c-42 0 -174 29
-260 57 -94 30 -217 90 -297 144 -31 22 -61 39 -65 39 -5 0 -56 -47 -113 -105
-110 -110 -151 -134 -209 -120 -35 9 -88 61 -101 101 -21 62 -1 100 115 213
l105 103 -55 83 c-105 157 -171 312 -205 475 l-17 85 -166 10 c-182 11 -195
16 -223 82 -18 43 -18 77 2 120 30 61 50 67 227 73 l160 5 17 85 c37 180 131
401 219 515 l38 50 -107 115 c-70 75 -110 126 -114 146 -9 41 18 108 53 133
78 56 132 35 266 -99 55 -55 102 -100 106 -100 3 0 37 20 74 45 141 95 324
165 485 187 l90 12 0 166 c0 157 1 169 23 201 23 35 78 69 110 69 10 0 32 -6
50 -14z m-3056 -161 c29 -9 69 -32 94 -54 141 -124 165 -374 74 -759 -72 -302
-292 -805 -497 -1137 -113 -181 -345 -480 -502 -643 l-80 -83 -14 28 c-8 15
-28 42 -45 60 l-30 32 102 107 c147 154 367 455 510 698 120 204 275 538 339
732 106 319 148 614 106 753 -8 30 -30 69 -49 89 -32 36 -36 37 -102 37 -82 0
-151 -30 -289 -127 -114 -80 -333 -300 -448 -448 -107 -139 -264 -375 -374
-564 -45 -76 -84 -141 -86 -143 -6 -7 -76 133 -76 152 0 8 32 68 72 132 328
538 678 935 953 1080 135 71 238 89 342 58z m7586 -17 c61 -27 130 -103 157
-175 74 -199 34 -538 -111 -923 -223 -596 -477 -1016 -880 -1459 l-103 -113
-17 34 c-9 18 -29 46 -43 61 l-26 28 107 117 c153 168 364 458 492 676 73 125
224 429 276 555 163 400 235 810 170 968 -21 53 -71 98 -118 107 -137 26 -456
-207 -713 -520 -134 -162 -318 -438 -464 -693 l-48 -84 -36 71 c-20 39 -36 80
-36 90 0 22 119 218 241 397 351 515 693 829 964 885 54 11 130 2 188 -22z
m-8963 7 c115 -31 245 -111 401 -248 47 -42 94 -88 103 -102 17 -26 17 -27
-21 -72 -21 -26 -41 -51 -44 -56 -4 -5 -45 28 -92 73 -208 200 -386 295 -501
266 -62 -15 -125 -104 -126 -176 l0 -35 -75 0 -75 0 0 32 c0 51 21 134 46 184
61 122 221 178 384 134z m7524 0 c78 -16 163 -54 249 -109 106 -68 308 -248
307 -274 -1 -4 -21 -29 -46 -56 l-44 -48 -93 84 c-50 47 -123 108 -161 137
-247 187 -424 164 -460 -59 l-6 -35 -75 0 -74 0 6 45 c22 185 90 275 233 314
70 19 80 19 164 1z m-7789 -454 c94 -54 110 -188 31 -267 -124 -124 -332 -4
-286 166 13 48 67 106 113 119 41 13 103 5 142 -18z m7541 3 c164 -78 110
-324 -71 -326 -146 -3 -228 170 -132 279 54 62 133 80 203 47z m-6449 -281
c160 -212 323 -463 323 -498 0 -19 -66 -165 -74 -165 -3 0 -20 28 -37 61 -70
140 -237 397 -345 531 -30 37 -54 71 -54 76 0 12 81 112 91 112 4 0 47 -53 96
-117z m7561 -10 c141 -186 322 -465 322 -496 0 -7 -17 -49 -38 -92 l-39 -80
-32 64 c-73 143 -243 404 -356 545 l-55 70 22 25 c56 65 72 81 79 81 4 0 47
-53 97 -117z m-8598 -178 c62 -218 200 -517 366 -792 52 -86 94 -156 94 -157
0 -5 -176 17 -182 22 -3 4 -54 99 -112 212 -117 228 -195 414 -267 630 l-48
145 50 11 c27 6 53 14 56 18 11 11 19 -6 43 -89z m7549 21 c52 -213 229 -591
420 -895 l53 -84 -73 7 c-109 10 -111 11 -147 79 -94 175 -205 406 -250 517
-51 127 -146 400 -140 405 8 8 114 31 119 26 4 -3 12 -28 18 -55z m-7205 12
c-50 -89 -101 -159 -118 -163 -12 -2 -37 -6 -57 -10 l-35 -5 -23 65 c-13 35
-21 70 -19 77 3 8 48 19 124 29 65 9 123 17 127 18 5 0 5 -5 1 -11z m566 -58
c29 -39 51 -72 49 -74 -2 -1 -75 0 -162 3 l-157 6 45 68 45 67 64 0 64 0 52
-70z m7546 8 c26 -35 52 -69 57 -75 7 -10 -26 -13 -157 -13 l-167 0 52 75 51
75 59 0 58 0 47 -62z m-599 -30 c-43 -67 -59 -83 -86 -90 -68 -18 -82 -10
-108 66 -12 38 -22 71 -20 72 3 3 214 32 245 33 20 1 18 -6 -31 -81z m-6438
51 c30 -5 56 -10 58 -12 5 -5 -36 -120 -46 -130 -5 -5 -23 -6 -41 -2 -29 6
-55 38 -124 153 -8 14 35 11 153 -9z m7521 1 c108 -18 103 -11 76 -86 -13 -36
-26 -67 -28 -70 -3 -2 -19 -1 -37 2 -31 7 -55 35 -125 152 -9 15 24 16 114 2z
m-9119 -117 c12 -38 24 -73 26 -79 2 -7 -11 -14 -32 -18 -20 -4 -91 -25 -158
-47 -200 -67 -355 -157 -392 -230 -19 -36 -19 -102 0 -138 40 -78 223 -190
418 -255 297 -99 735 -166 1093 -166 96 0 174 -4 174 -9 0 -4 -22 -37 -48 -72
l-48 -64 -149 3 c-292 6 -553 36 -848 98 -266 56 -521 177 -654 309 -147 148
-137 303 30 469 100 98 259 181 462 241 44 13 85 24 92 24 6 1 21 -29 34 -66z
m7563 -19 c18 -53 22 -76 13 -79 -7 -2 -68 -19 -137 -39 -247 -72 -425 -182
-451 -278 -67 -251 637 -500 1484 -526 l218 -7 -47 -67 -46 -68 -122 0 c-254
0 -538 30 -813 86 -196 40 -334 84 -467 151 -390 196 -463 411 -218 644 58 56
103 88 179 127 101 52 318 132 360 132 18 0 25 -13 47 -76z m-5493 32 c270
-79 478 -216 551 -364 28 -56 32 -76 33 -141 0 -78 -21 -134 -73 -200 l-19
-24 -11 31 c-6 16 -27 48 -47 71 l-37 41 16 34 c37 78 7 161 -81 228 -70 53
-221 123 -353 165 -63 20 -119 39 -123 43 -11 10 35 140 49 140 7 0 49 -11 95
-24z m7621 -27 c51 -17 143 -56 203 -87 90 -47 125 -72 191 -137 65 -64 86
-92 104 -140 33 -87 32 -175 -3 -247 -15 -30 -36 -63 -46 -72 -19 -17 -20 -17
-39 21 -11 21 -33 51 -50 66 l-29 28 18 37 c44 85 7 168 -109 246 -89 59 -154
88 -323 145 l-136 46 25 68 25 69 38 -6 c21 -3 80 -20 131 -37z m-8630 -306
c70 -35 108 -117 89 -191 -37 -135 -199 -177 -293 -76 -51 55 -61 120 -29 190
40 88 144 123 233 77z m7572 -12 c99 -61 100 -222 3 -288 -112 -76 -267 6
-267 141 0 134 150 217 264 147z m-8356 -317 c39 -78 42 -90 31 -115 -6 -16
-14 -29 -18 -29 -20 2 -133 29 -138 34 -7 7 67 196 77 196 3 0 25 -39 48 -86z
m1567 -239 c123 -365 162 -626 120 -790 -98 -376 -385 -378 -817 -7 -59 50
-109 96 -113 102 -3 5 15 34 41 64 l48 54 82 -75 c268 -245 450 -317 559 -221
45 39 65 106 65 219 0 189 -92 573 -184 769 l-17 35 47 89 47 89 34 -84 c19
-46 58 -156 88 -244z m5990 235 c40 -80 44 -92 33 -116 -12 -25 -15 -26 -65
-20 -28 3 -63 10 -77 16 l-26 9 36 83 c20 46 39 91 41 101 3 9 7 17 9 17 2 0
24 -40 49 -90z m1511 -81 c159 -418 222 -744 179 -935 -39 -175 -128 -280
-255 -299 -93 -14 -235 37 -387 138 -72 48 -293 233 -293 245 0 4 21 31 46 59
l45 53 100 -90 c193 -173 319 -245 425 -244 80 1 120 24 154 89 23 46 25 59
24 180 0 101 -7 159 -28 260 -35 169 -78 317 -127 437 l-40 96 43 86 c23 47
46 82 51 77 4 -4 33 -73 63 -152z m-6923 88 c100 -76 85 -238 -29 -292 -52
-25 -132 -17 -177 18 -99 75 -85 235 25 291 50 25 136 17 181 -17z m7537 8
c49 -25 90 -92 90 -149 0 -132 -142 -217 -254 -153 -49 28 -76 64 -85 113 -26
145 119 254 249 189z m-7890 -183 c0 -16 11 -51 25 -77 13 -27 23 -50 22 -50
-8 -6 -126 -35 -139 -35 -11 0 -23 22 -38 71 -12 39 -19 73 -17 76 6 6 118 41
135 42 7 1 12 -11 12 -27z m7565 -34 c6 -25 19 -58 29 -72 13 -20 14 -27 4
-31 -36 -12 -141 -36 -144 -32 -5 5 -54 147 -51 148 23 10 126 36 136 35 8 0
19 -22 26 -48z m-8002 -112 l25 -74 -112 -15 c-61 -8 -112 -14 -113 -13 -1 1
24 41 55 89 51 80 59 87 88 87 31 0 33 -3 57 -74z m7554 8 c34 -91 35 -89 -66
-102 -143 -19 -137 -24 -78 72 39 63 58 85 77 89 40 6 44 3 67 -59z m-9055
-125 c29 -6 54 -12 56 -14 1 -1 -9 -49 -23 -106 -61 -252 -51 -476 25 -557 32
-34 68 -44 127 -37 50 6 54 5 62 -18 5 -14 24 -41 41 -61 l32 -36 -28 -10
c-46 -18 -143 -27 -195 -19 -108 17 -183 92 -230 229 -38 110 -29 327 23 553
22 97 19 95 110 76z m7546 -3 c35 -8 65 -15 67 -17 2 -2 -7 -48 -20 -101 -66
-272 -54 -493 30 -567 40 -34 76 -41 147 -27 21 4 27 1 32 -17 3 -12 21 -41
40 -64 l36 -41 -65 -17 c-76 -21 -183 -17 -232 9 -104 53 -183 219 -183 381 1
130 57 476 78 475 4 -1 35 -7 70 -14z m-6821 -72 c18 -4 36 -17 47 -35 16 -28
16 -30 -2 -57 -34 -46 -81 -87 -91 -76 -17 19 -121 163 -121 168 0 8 130 8
167 0z m7510 -4 c80 0 81 0 101 -32 l20 -32 -50 -58 c-28 -32 -54 -58 -58 -58
-6 0 -111 140 -134 178 -7 12 -4 14 15 9 13 -4 61 -7 106 -7z m-7659 -407 c68
-50 91 -137 58 -217 -35 -84 -158 -122 -241 -74 -122 71 -107 257 25 311 32
13 130 1 158 -20z m7544 1 c62 -32 98 -113 84 -189 -9 -46 -67 -110 -113 -126
-75 -24 -174 16 -206 84 -21 43 -22 119 -3 155 45 87 151 121 238 76z m-7844
-1351 l2 -423 850 0 850 0 0 425 0 425 880 0 880 0 0 -425 0 -425 850 0 850 0
0 425 0 425 895 0 895 0 0 -425 0 -425 845 0 845 0 0 420 0 420 805 0 806 0
-4 -2137 c-3 -1945 -4 -2151 -20 -2283 -74 -628 -235 -1189 -518 -1810 -509
-1115 -1424 -2297 -2529 -3268 -1088 -956 -2217 -1592 -2825 -1592 -652 0
-1839 669 -2930 1651 -889 800 -1647 1739 -2167 2687 -400 729 -657 1483 -748
2197 -38 300 -40 419 -40 2517 l0 2048 763 -2 762 -3 3 -422z"/>
<path d="M5845 14343 c-67 -9 -188 -45 -265 -78 -230 -98 -415 -274 -525 -500
-91 -186 -124 -362 -105 -555 46 -444 348 -789 800 -912 115 -32 362 -31 484
1 313 82 554 275 691 556 84 170 100 244 100 455 0 152 -3 186 -23 260 -108
394 -429 688 -835 765 -73 14 -248 18 -322 8z m320 -95 c3 -3 -5 -48 -18 -99
l-23 -94 -80 4 c-43 2 -80 4 -80 5 -1 0 -4 45 -6 100 l-4 98 103 -4 c57 -3
105 -7 108 -10z m-301 -29 c3 -17 6 -62 6 -99 l0 -68 -62 -16 c-35 -10 -72
-20 -83 -22 -17 -5 -27 9 -62 80 -24 48 -43 88 -43 90 0 4 139 51 175 59 51
12 62 8 69 -24z m559 -56 l37 -18 -56 -85 c-31 -47 -58 -86 -59 -87 -2 -3
-128 47 -134 53 -3 3 38 182 46 196 4 8 107 -28 166 -59z m240 -172 c107 -100
205 -267 252 -426 32 -109 43 -282 26 -395 -17 -108 -71 -258 -127 -352 -62
-103 -194 -239 -296 -306 -253 -164 -566 -202 -852 -102 -235 81 -445 273
-551 504 -35 74 -70 184 -62 192 5 6 174 34 204 34 17 0 25 -10 38 -52 63
-194 199 -347 390 -439 112 -54 203 -72 345 -66 134 5 232 33 342 97 322 191
450 597 297 938 -48 107 -138 219 -231 289 l-27 20 36 54 c20 30 47 69 60 87
l25 33 46 -37 c26 -21 64 -53 85 -73z m-535 -36 c240 -48 441 -240 502 -481
39 -153 19 -321 -57 -467 -54 -106 -173 -221 -284 -276 -410 -202 -884 55
-942 510 -27 216 75 459 247 586 166 123 343 166 534 128z m-776 -98 l84 -52
-42 -58 c-23 -31 -44 -62 -46 -68 -3 -10 -38 1 -150 50 l-48 20 30 51 c38 64
72 110 81 110 4 0 45 -24 91 -53z m-141 -233 c46 -19 85 -36 86 -37 7 -7 -25
-90 -38 -98 -8 -5 -56 -9 -106 -9 -73 0 -93 3 -93 14 0 14 38 145 47 159 7 12
17 9 104 -29z m49 -312 l0 -88 -107 -17 c-60 -10 -111 -17 -115 -17 -5 0 -8
45 -8 100 l0 99 73 4 c39 1 91 4 115 5 l42 2 0 -88z"/>
<path d="M5858 13731 c-81 -26 -139 -63 -193 -123 -197 -218 -127 -553 142
-681 64 -30 75 -32 178 -32 103 0 114 2 178 32 218 103 311 366 206 580 -35
72 -104 147 -169 186 -97 56 -236 72 -342 38z m267 -95 c72 -33 126 -84 166
-158 32 -59 34 -69 34 -158 0 -113 -19 -163 -89 -238 -152 -162 -410 -144
-537 38 -101 144 -82 328 47 450 54 51 75 63 154 86 62 19 159 10 225 -20z"/>
<path d="M9161 10123 c-63 -142 -106 -210 -182 -284 -72 -70 -181 -134 -279
-164 -30 -9 -107 -20 -170 -25 -134 -11 -246 -38 -346 -84 -100 -47 -173 -99
-293 -210 -120 -111 -223 -169 -331 -186 -36 -5 -200 -17 -365 -25 -370 -18
-415 -22 -590 -46 -408 -58 -656 -178 -794 -385 -74 -109 -103 -207 -109 -364
-5 -146 8 -214 64 -327 66 -137 248 -299 443 -398 154 -77 356 -117 596 -119
134 -1 166 2 303 32 184 39 285 41 290 6 2 -14 -9 -32 -32 -52 -49 -43 -203
-131 -308 -178 -48 -21 -84 -42 -80 -46 12 -12 155 -46 223 -53 130 -14 319
32 436 105 34 21 106 74 158 116 53 42 97 75 100 73 2 -3 -7 -36 -20 -74 -20
-59 -34 -79 -85 -127 -33 -31 -98 -75 -143 -99 -80 -42 -81 -43 -52 -51 59
-15 171 -20 232 -9 207 38 436 148 656 313 43 32 80 58 82 56 1 -2 18 -28 37
-58 75 -118 198 -199 355 -234 75 -17 356 -40 411 -34 29 3 26 6 -74 86 -169
135 -226 221 -226 340 0 105 30 172 116 258 206 207 617 273 971 157 333 -108
537 -350 510 -602 -34 -317 -321 -551 -745 -607 -103 -13 -179 -15 -430 -11
-168 4 -354 11 -415 16 -355 34 -705 81 -1090 147 -472 81 -519 85 -671 59
-49 -9 -156 -39 -239 -67 -207 -71 -245 -78 -447 -85 -168 -5 -403 8 -452 26
-17 7 -14 10 18 30 20 13 35 25 33 28 -3 2 -44 -1 -93 -8 -48 -6 -119 -9 -156
-7 -224 16 -407 254 -483 626 -19 93 -16 112 17 112 59 1 161 66 207 134 l30
44 -64 -6 c-113 -9 -194 38 -277 161 -57 84 -101 185 -169 384 -60 178 -82
229 -129 298 -44 66 -45 72 -4 34 77 -69 78 -66 19 51 -101 201 -181 296 -293
348 -60 28 -148 35 -223 19 -37 -7 -37 -7 -52 37 -45 132 -192 247 -347 272
-24 4 -40 3 -40 -3 0 -5 9 -36 21 -69 21 -59 30 -164 17 -195 -5 -13 -18 -6
-65 40 -88 85 -213 146 -362 177 -100 21 -188 63 -232 110 -20 22 -60 78 -89
127 -29 48 -54 87 -55 87 -6 0 37 -232 50 -274 19 -56 68 -157 96 -198 l19
-26 -75 -7 c-143 -14 -206 11 -306 118 l-66 70 14 -79 c20 -112 61 -190 134
-258 l60 -56 -51 0 c-140 0 -280 -64 -362 -166 -27 -32 -48 -62 -48 -66 0 -4
26 -8 58 -9 l57 0 -29 -22 c-16 -12 -47 -41 -69 -64 -31 -33 -51 -44 -92 -53
-98 -20 -185 -126 -201 -242 -5 -36 -1 -64 16 -114 l22 -67 -48 -40 c-120
-101 -218 -232 -253 -340 -17 -52 -46 -255 -38 -264 2 -1 25 38 51 87 47 86
99 150 112 137 12 -12 -67 -154 -112 -199 -91 -93 -136 -97 -318 -33 -71 25
-130 44 -132 42 -8 -7 271 -186 316 -203 33 -13 77 -18 166 -18 l121 -1 -24
-51 c-36 -80 -61 -193 -69 -313 -4 -61 -9 -111 -11 -111 -12 0 -164 134 -224
196 -174 182 -300 413 -338 619 -8 42 -7 94 5 208 8 84 12 168 9 187 -10 52
-42 98 -85 120 -23 12 -40 29 -44 44 -10 39 -61 92 -106 110 -22 9 -65 19 -97
22 -62 8 -62 10 -12 -59 39 -54 56 -107 38 -118 -23 -14 -33 -10 -51 20 -11
21 -30 34 -60 43 -23 7 -62 27 -84 44 -34 25 -170 74 -207 74 -3 0 16 -29 43
-66 28 -36 50 -70 50 -77 0 -6 -15 -26 -32 -44 -34 -35 -41 -74 -25 -134 l7
-27 -32 30 c-31 29 -36 30 -99 25 -46 -4 -72 -2 -85 7 -61 41 -130 41 -180 0
l-29 -24 30 -22 c66 -50 73 -64 68 -126 -7 -75 17 -123 92 -188 31 -27 62 -59
70 -71 15 -23 15 -23 -39 4 l-54 26 -37 -21 c-44 -26 -58 -21 -127 46 -26 25
-50 43 -53 40 -4 -3 -9 -30 -12 -61 -7 -65 8 -118 48 -169 20 -25 29 -48 29
-73 0 -74 54 -133 148 -162 45 -14 70 -31 117 -78 44 -44 87 -73 158 -108 94
-47 99 -51 127 -106 41 -81 71 -175 72 -225 2 -105 -83 -173 -245 -195 -117
-16 -185 -50 -220 -109 l-17 -30 67 -23 c38 -12 136 -53 218 -90 84 -38 196
-81 254 -96 l104 -27 -56 -51 c-72 -66 -133 -98 -230 -125 -94 -25 -158 -56
-211 -102 l-40 -34 72 -12 c92 -15 191 -55 317 -127 147 -84 184 -96 304 -104
l103 -6 -38 -43 c-26 -28 -89 -70 -194 -128 -174 -97 -184 -104 -149 -104 13
0 114 -8 224 -18 267 -23 447 -21 543 6 l73 20 89 -83 c109 -101 186 -143 287
-153 165 -18 345 24 552 127 55 28 104 51 108 51 5 0 24 -28 43 -61 19 -34 85
-116 147 -183 183 -196 199 -250 169 -561 -39 -403 -62 -551 -107 -710 -78
-272 -151 -461 -219 -569 -51 -80 -115 -124 -310 -215 -214 -99 -238 -121
-265 -250 -27 -127 -17 -212 29 -250 13 -11 16 -9 22 13 6 27 66 86 87 86 30
-1 37 -15 26 -54 -12 -44 -1 -104 33 -169 l20 -41 25 53 c14 28 36 59 50 68
22 15 27 15 59 0 19 -10 43 -17 53 -17 12 0 21 -10 26 -27 9 -39 45 -113 55
-113 4 0 13 14 19 32 6 18 23 44 36 58 23 24 30 25 102 23 77 -2 78 -2 86 -32
13 -52 97 -98 97 -53 0 9 11 34 25 55 25 36 27 37 89 37 52 0 75 6 121 30 31
16 75 35 97 41 65 17 93 53 113 145 29 129 40 149 108 195 49 32 68 39 91 35
55 -11 76 -72 76 -218 l0 -93 50 75 c66 99 94 188 94 305 1 50 -3 114 -7 142
-6 42 -5 53 6 53 20 0 52 -38 82 -102 31 -63 100 -151 160 -201 l40 -34 0 312
c0 276 1 307 13 272 26 -77 90 -155 155 -188 l37 -19 0 132 c0 78 7 171 16
223 20 109 14 225 -15 309 -12 33 -21 61 -21 64 0 2 32 -25 70 -61 39 -36 90
-74 115 -86 48 -23 126 -28 170 -11 l27 10 -51 57 c-64 71 -95 150 -116 289
-18 123 -49 199 -120 300 l-45 63 50 63 c28 35 62 87 77 115 l25 53 -17 70
c-10 39 -15 73 -12 76 5 5 196 -50 224 -65 59 -31 100 -117 115 -242 6 -49 15
-86 19 -82 4 4 21 47 37 95 37 104 55 227 46 307 l-6 60 62 -26 c35 -14 127
-36 204 -49 160 -28 190 -35 299 -71 43 -14 80 -23 82 -22 2 2 -46 71 -106
153 -60 82 -108 150 -107 152 2 1 32 -4 68 -13 43 -10 101 -13 173 -11 l107 3
0 -28 c0 -41 37 -144 77 -211 19 -33 77 -116 129 -183 333 -435 390 -616 236
-755 -97 -87 -336 -226 -592 -343 -80 -37 -182 -84 -226 -105 -124 -58 -194
-129 -209 -213 -4 -22 -22 -63 -41 -94 -40 -66 -50 -117 -33 -172 l12 -42 36
34 c49 47 77 60 112 52 27 -6 29 -9 23 -45 -5 -29 -1 -50 16 -84 12 -25 25
-46 29 -46 4 0 14 12 22 26 23 44 68 75 103 72 30 -3 31 -5 44 -78 8 -41 16
-77 18 -79 2 -3 19 9 37 26 61 58 107 83 134 72 13 -5 44 -9 69 -9 36 0 44 -3
44 -18 0 -10 12 -42 27 -72 l26 -53 22 49 c12 27 34 60 49 73 l26 25 50 -18
c127 -46 241 18 368 205 42 62 61 77 72 58 20 -30 23 -103 7 -173 -8 -39 -14
-72 -12 -74 1 -2 29 13 62 32 57 34 109 82 145 136 l16 25 12 -30 c23 -54 16
-153 -15 -220 -42 -93 -47 -107 -32 -99 6 4 48 38 92 75 118 100 196 201 246
317 l27 66 14 -35 c8 -19 26 -62 39 -96 13 -35 26 -63 29 -63 3 0 45 89 93
198 68 154 90 214 98 271 13 91 -2 195 -37 268 l-25 52 22 42 c34 68 24 105
-79 285 -133 234 -147 273 -147 414 0 123 25 233 63 280 l18 22 38 -58 c101
-152 219 -226 501 -314 201 -63 351 -154 419 -253 67 -97 139 -344 166 -569 7
-53 11 -159 8 -235 -3 -124 -6 -144 -31 -196 -55 -121 -141 -193 -284 -241
-120 -40 -173 -87 -187 -166 -3 -19 -20 -62 -36 -94 -34 -66 -37 -103 -15
-146 19 -36 32 -38 46 -6 16 35 79 66 132 66 l46 0 -5 -47 c-8 -73 45 -159 60
-98 4 16 24 37 50 54 42 26 48 27 103 18 l58 -10 -3 -42 c-3 -34 1 -47 19 -64
28 -26 46 -27 53 -3 4 10 19 31 35 46 27 26 36 28 118 30 48 1 95 5 104 10 13
6 20 0 29 -28 12 -36 56 -76 83 -76 9 0 17 10 19 22 3 20 12 25 68 34 115 19
151 38 201 107 40 55 58 122 70 257 11 122 28 168 82 218 l25 23 48 -37 c66
-50 157 -91 223 -99 l54 -6 -19 28 c-55 83 -64 113 -64 219 0 112 -20 198 -59
253 -23 32 -15 39 21 20 11 -6 56 -47 101 -92 45 -45 108 -96 140 -114 31 -18
57 -30 57 -28 0 2 -7 33 -15 69 -8 36 -19 141 -24 233 -7 132 -13 180 -30 224
-25 66 -74 126 -136 167 -41 27 -43 30 -22 36 54 14 99 5 187 -39 155 -78 231
-80 284 -11 l25 34 -44 7 c-58 8 -98 42 -131 113 -14 31 -40 86 -56 121 -36
75 -96 145 -151 173 -25 12 -75 23 -136 29 -99 10 -227 34 -248 47 -9 6 -8 18
4 52 8 25 18 75 20 112 5 55 2 74 -16 111 -24 50 -41 59 -148 81 -131 27 -339
140 -418 227 -51 57 -94 153 -110 246 -7 43 -16 168 -20 278 -7 223 -18 352
-41 468 -9 43 -14 81 -11 83 2 3 32 -9 67 -25 126 -60 284 -65 445 -15 89 27
90 27 55 36 -111 28 -169 50 -193 74 -41 40 -32 47 23 19 82 -41 154 -55 286
-56 162 0 257 16 448 73 l69 21 -79 32 c-44 17 -95 40 -114 49 -44 22 -190
119 -190 126 0 3 64 13 143 23 171 21 356 58 467 93 79 25 83 25 123 9 23 -9
118 -37 210 -61 93 -25 188 -54 210 -66 23 -11 83 -61 134 -110 l91 -90 7 57
c25 194 -49 457 -158 564 l-45 44 48 73 c75 115 149 267 170 350 45 174 9 395
-92 567 -115 196 -314 374 -513 456 -210 88 -386 115 -690 108 -388 -9 -507
-33 -1755 -351 -555 -141 -850 -190 -1150 -190 -217 -1 -312 13 -453 65 -228
83 -381 240 -395 405 -4 55 -1 71 22 118 148 302 973 503 1583 385 159 -31
286 -72 504 -164 322 -138 455 -175 616 -175 155 0 210 16 738 208 99 37 101
37 255 37 114 -1 171 -5 215 -17 32 -10 61 -15 63 -13 12 11 -46 122 -87 167
-73 81 -169 135 -314 177 l-59 17 56 37 c31 20 95 74 143 120 160 151 218 180
413 208 164 24 259 49 358 94 134 63 211 137 245 238 9 26 14 47 11 47 -2 0
-31 -11 -62 -24 -102 -43 -210 -59 -356 -54 -121 5 -141 9 -272 51 -180 58
-285 73 -408 58 -159 -21 -384 -112 -516 -211 -29 -22 -55 -38 -57 -36 -2 2 8
43 22 92 14 49 32 134 40 189 14 107 30 315 23 315 -2 0 -24 -44 -47 -97z
m-1654 -1061 c-25 -27 -21 -48 16 -76 l32 -26 -70 7 c-125 14 -441 8 -565 -11
-442 -66 -768 -204 -902 -381 -54 -71 -71 -131 -66 -226 7 -112 47 -190 152
-294 116 -115 258 -186 468 -232 117 -25 470 -25 653 0 220 31 554 103 920
197 1042 269 1274 315 1635 327 501 15 837 -120 1072 -431 111 -147 162 -291
162 -461 1 -125 -22 -201 -100 -340 -114 -203 -170 -266 -308 -353 -228 -144
-525 -226 -945 -262 -115 -10 -561 -7 -918 5 l-143 5 24 -62 c13 -35 45 -108
71 -163 90 -191 121 -363 135 -730 12 -319 27 -408 91 -522 80 -142 320 -297
523 -339 39 -9 78 -22 86 -30 30 -30 11 -165 -32 -226 -18 -26 -19 -46 -19
-253 0 -124 5 -298 11 -388 12 -184 48 -578 56 -619 5 -23 -3 -38 -40 -80 -70
-80 -87 -122 -97 -245 -10 -127 -16 -156 -40 -204 -20 -39 -75 -92 -91 -87 -6
2 -16 22 -24 43 -20 59 -48 78 -106 73 l-48 -5 85 82 c94 92 106 114 48 90
-108 -45 -193 -126 -212 -201 -9 -33 -18 -47 -37 -54 -39 -15 -51 -12 -58 16
-11 42 -53 74 -97 74 -22 0 -39 4 -39 9 0 4 30 42 68 84 67 76 110 137 95 137
-15 0 -101 -55 -136 -86 -45 -40 -83 -108 -92 -161 -6 -37 -10 -43 -30 -43
-14 0 -29 6 -34 13 -6 6 -22 26 -36 43 -13 17 -38 37 -55 44 l-30 12 34 42
c18 22 39 51 45 63 11 22 10 22 -16 12 -51 -19 -113 -60 -129 -84 l-16 -25
-18 22 c-9 12 -32 27 -51 33 -18 6 -35 17 -37 23 -5 16 51 48 128 73 88 29
144 62 213 128 117 111 152 209 151 421 -2 272 -67 581 -162 763 -77 149 -246
258 -551 357 -191 62 -284 116 -364 215 -71 88 -104 166 -142 337 -46 203 -64
266 -87 311 -10 21 -33 77 -50 125 -91 258 -227 440 -373 497 -38 15 -39 14
-15 -2 106 -72 237 -279 330 -518 7 -19 0 -18 -102 17 -205 71 -423 101 -568
79 -41 -6 -122 -16 -180 -22 -375 -36 -960 -159 -1419 -298 -74 -22 -136 -39
-139 -37 -2 3 1 28 7 57 6 28 9 54 7 57 -3 2 -17 -8 -31 -22 -69 -69 -72 -167
-14 -416 47 -206 52 -185 -66 -330 -282 -346 -631 -1005 -816 -1538 -31 -91
-49 -128 -66 -139 -34 -23 -61 -81 -82 -178 -10 -46 -21 -88 -25 -93 -3 -6
-30 -18 -59 -28 -28 -9 -72 -28 -96 -41 l-45 -23 -27 33 c-35 42 -77 60 -128
55 l-40 -3 21 22 c12 13 45 38 72 55 79 49 186 129 186 138 0 12 -91 -16 -170
-52 -100 -45 -169 -124 -184 -210 -10 -55 -30 -54 -54 3 -16 39 -28 53 -57 64
-20 9 -33 20 -30 25 3 5 48 37 99 70 51 33 102 70 112 82 l19 21 -33 -6 c-51
-10 -177 -66 -221 -98 -44 -31 -101 -120 -101 -156 0 -14 -6 -23 -15 -23 -16
0 -19 5 -30 54 -9 42 -57 86 -94 86 -42 0 -39 10 12 42 52 33 127 97 127 108
0 10 -69 -5 -118 -26 -21 -8 -49 -27 -64 -41 -27 -26 -28 -26 -28 -6 0 36 -47
83 -83 83 l-32 1 27 22 c15 12 91 51 169 86 77 35 166 81 198 101 137 89 220
241 331 607 88 288 97 340 145 823 20 204 26 242 49 290 14 30 26 62 26 70 0
8 17 -17 38 -55 38 -71 127 -195 141 -195 4 0 17 44 29 98 29 123 68 206 179
379 50 76 112 175 138 221 26 45 50 81 52 79 2 -3 8 -32 14 -67 21 -135 81
-209 203 -252 42 -15 76 -25 76 -22 0 3 -22 32 -50 65 -27 33 -53 71 -56 85
-10 38 1 142 21 198 12 36 313 586 330 604 2 2 14 -16 26 -40 30 -58 123 -146
198 -186 l61 -33 -32 83 c-24 65 -31 99 -32 158 0 101 28 161 125 266 124 132
195 255 220 379 l13 65 46 -6 c96 -13 303 37 439 105 49 25 65 29 88 21 66
-22 296 -43 473 -43 226 0 313 14 506 81 299 106 366 108 835 28 1016 -173
1732 -224 2118 -151 285 54 520 201 639 398 73 121 107 294 83 422 -52 279
-352 515 -739 581 -141 24 -373 15 -503 -19 -132 -36 -2157 -474 -2247 -487
-39 -5 -125 -22 -190 -36 -139 -31 -315 -35 -483 -9 -203 30 -320 74 -479 180
-207 139 -307 298 -317 505 -15 296 138 514 442 631 216 84 446 117 960 139
143 6 265 13 270 15 6 2 23 4 39 4 28 1 28 0 13 -17z m-3547 -637 l35 -100 5
105 c5 104 5 104 23 77 10 -15 20 -42 23 -60 10 -58 9 -58 71 -27 32 16 75 31
96 34 l38 5 -21 -35 c-17 -26 -19 -35 -8 -38 7 -3 31 -10 53 -17 53 -16 144
-108 178 -180 51 -108 97 -324 97 -453 0 -80 31 -279 54 -343 8 -24 13 -43 11
-43 -44 0 -304 -61 -405 -95 -74 -24 -124 -42 -110 -39 183 40 430 87 435 83
6 -6 37 -171 32 -174 -1 -1 -49 2 -107 7 -58 5 -136 7 -175 6 -67 -3 -68 -3
-25 -10 25 -4 105 -13 179 -19 l133 -12 -5 -49 c-6 -48 -25 -87 -67 -137 l-20
-23 -96 42 c-97 42 -265 103 -271 97 -1 -2 23 -14 55 -27 31 -13 110 -50 174
-82 l118 -58 -124 -183 c-182 -269 -179 -263 -186 -437 -5 -117 -10 -152 -26
-182 l-19 -38 -30 121 c-16 66 -32 122 -36 125 -4 2 -13 -29 -19 -68 -17 -102
-45 -187 -74 -227 -21 -28 -115 -101 -130 -101 -3 0 -5 35 -4 79 0 80 -8 108
-45 149 l-21 22 -33 -52 c-18 -29 -33 -60 -33 -68 0 -11 -3 -10 -12 4 -7 12
-9 51 -5 108 3 48 4 88 2 88 -3 0 -24 -14 -49 -31 -48 -34 -90 -101 -102 -163
l-7 -39 -18 24 c-27 36 -40 100 -39 192 1 79 -3 94 -119 442 -67 198 -121 365
-121 371 0 10 128 74 178 89 13 4 22 9 19 11 -2 2 -50 -11 -105 -31 -56 -19
-103 -35 -106 -35 -2 0 -7 14 -11 30 -4 17 -10 30 -14 30 -4 0 -18 -23 -31
-51 -13 -28 -28 -53 -32 -55 -4 -3 -8 50 -8 117 l0 122 138 -7 c75 -3 153 -9
172 -11 32 -5 33 -4 10 6 -41 18 -201 49 -257 49 -48 0 -53 2 -54 23 l0 22
-16 -22 c-11 -17 -25 -23 -54 -23 -34 0 -39 3 -39 24 0 28 18 128 25 134 11
12 313 -91 406 -138 22 -12 43 -19 45 -17 9 9 -223 119 -331 157 -73 25 -109
43 -107 52 2 7 25 69 52 138 26 69 55 150 64 180 91 321 144 444 231 539 65
70 123 101 187 101 39 0 56 -7 119 -54 41 -30 75 -53 76 -52 2 2 -8 36 -22 76
-14 40 -23 75 -21 77 2 2 19 -2 38 -10 25 -11 45 -33 77 -86 24 -40 45 -71 47
-68 6 6 -14 255 -22 270 -3 7 9 -4 28 -23 23 -24 44 -65 68 -135z m-1043 134
l27 -10 -51 -47 c-59 -54 -158 -180 -149 -189 3 -3 -3 -13 -15 -21 -11 -8 -21
-12 -23 -11 -55 85 -11 242 79 279 29 12 99 12 132 -1z m1923 -151 c48 -33 80
-99 80 -165 l0 -55 -57 47 c-32 25 -86 66 -120 89 l-63 43 23 21 c48 45 91 51
137 20z m-3406 -230 c3 -24 8 -68 12 -98 10 -91 71 -236 91 -216 5 4 9 71 11
148 3 126 5 139 20 132 38 -17 97 -15 135 4 37 20 37 20 48 0 15 -28 15 -62
-1 -238 l-13 -155 32 -115 c56 -200 147 -363 305 -543 67 -76 200 -197 277
-250 l24 -17 -20 -38 c-28 -51 -99 -96 -203 -127 -48 -14 -94 -29 -102 -32 -8
-3 37 -14 100 -25 141 -23 219 -17 294 21 l53 27 6 -96 c11 -154 50 -278 124
-392 47 -71 91 -112 162 -148 24 -12 56 -36 70 -52 108 -128 188 -269 197
-353 8 -65 -9 -127 -46 -169 -17 -18 -85 -66 -152 -106 l-123 -72 -65 6 c-94
8 -171 50 -261 141 -62 63 -93 107 -193 282 -312 544 -734 1266 -780 1335 -28
42 -60 92 -71 110 -15 25 -46 46 -125 85 -86 43 -116 64 -166 118 -43 46 -67
65 -85 65 -37 0 -112 41 -128 71 -14 25 -13 29 22 70 20 23 37 47 37 53 1 35
17 36 83 6 78 -35 98 -37 122 -10 39 43 -2 127 -119 238 -36 34 -66 71 -66 80
0 11 13 23 35 31 38 13 75 54 75 82 0 10 4 21 10 24 21 13 48 -17 110 -121 66
-112 109 -167 142 -185 26 -14 31 -7 18 26 -6 15 -12 68 -14 119 -3 74 -9 105
-35 168 -44 108 -43 113 23 113 41 0 62 6 83 22 15 12 31 22 34 22 4 1 9 -18
13 -41z m5658 -2662 c100 -19 205 -51 295 -88 l72 -29 20 -62 c11 -34 36 -132
55 -217 19 -85 39 -167 45 -182 8 -22 5 -38 -18 -90 -16 -35 -42 -105 -60
-156 -56 -170 -37 -308 71 -511 128 -241 138 -263 138 -285 0 -17 -44 -59
-177 -172 -98 -82 -261 -220 -363 -308 -102 -87 -206 -174 -232 -193 -26 -19
-72 -69 -101 -111 -30 -42 -72 -94 -95 -114 -63 -57 -152 -76 -152 -32 0 36
-34 87 -68 101 l-35 14 89 87 c48 47 83 87 76 90 -21 7 -155 -72 -207 -123
-37 -36 -55 -63 -64 -97 -12 -42 -18 -49 -48 -57 -45 -13 -59 -6 -67 32 -7 35
-42 77 -64 77 -8 0 16 24 53 53 38 28 74 62 82 74 14 20 13 21 -9 16 -87 -22
-195 -90 -228 -146 l-18 -29 -7 23 c-4 13 -16 33 -26 44 -18 21 -18 21 26 58
46 39 58 62 28 53 -10 -3 -37 -10 -59 -15 -23 -6 -58 -22 -78 -36 l-36 -24
-13 32 c-17 40 -38 58 -79 66 l-31 6 33 39 c45 51 88 77 228 137 299 130 629
315 744 418 56 50 97 129 105 203 14 139 -80 325 -336 663 -123 160 -180 267
-188 351 -5 49 -3 57 16 71 20 13 21 16 6 27 -15 11 -15 17 1 81 9 39 18 71
20 73 1 2 99 -4 216 -13 118 -9 225 -15 238 -13 21 3 9 17 -93 108 -64 57
-114 106 -112 108 23 24 280 22 407 -2z"/>
<path d="M3395 7936 c-22 -7 -53 -20 -70 -28 l-30 -16 28 -13 c20 -9 33 -9 51
-1 23 10 24 9 29 -34 6 -59 46 -110 97 -125 36 -11 44 -10 88 13 l48 25 -6
-46 c-4 -31 -23 -75 -58 -132 -62 -103 -102 -187 -102 -214 0 -55 77 -120 154
-129 41 -6 60 -14 81 -36 40 -42 84 -55 128 -37 19 8 38 20 41 26 12 19 82 50
128 57 46 7 98 30 110 48 15 22 8 86 -22 201 -33 128 -35 148 -19 193 l11 31
31 -20 c21 -12 50 -19 84 -19 60 0 101 28 134 91 21 41 31 45 75 29 29 -12 67
-4 62 12 -2 5 -37 28 -78 50 -94 49 -119 48 -249 -19 -78 -40 -98 -55 -114
-86 -27 -53 -23 -129 13 -267 16 -63 30 -127 30 -142 l0 -27 -34 20 c-55 32
-173 49 -347 49 -87 0 -159 2 -159 4 0 15 41 94 91 178 43 69 60 107 58 126
-2 15 3 43 11 61 l14 34 -50 45 c-48 44 -174 113 -204 111 -8 0 -33 -6 -55
-13z"/>
<path d="M3651 7080 c-59 -22 -175 -87 -218 -124 l-27 -23 17 -64 c9 -35 23
-109 31 -164 21 -144 61 -304 84 -334 26 -35 67 -37 137 -7 32 15 66 26 76 26
11 0 58 -20 105 -45 131 -69 134 -68 203 90 74 168 123 412 90 451 -23 28
-191 140 -266 178 -85 42 -146 47 -232 16z"/>
</g>
</svg>
